<?xml version="1.0" encoding="UTF-8" standalone="no"?>
<!DOCTYPE svg PUBLIC "-//W3C//DTD SVG 1.1//EN"
 "http://www.w3.org/Graphics/SVG/1.1/DTD/svg11.dtd">
<!-- Generated by graphviz version 2.28.0 (20130627.2204)
 -->
<!-- Title: Xorg Pages: 1 -->
<svg width="813pt" height="596pt"
 viewBox="0.00 0.00 813.00 596.00" xmlns="http://www.w3.org/2000/svg" xmlns:xlink="http://www.w3.org/1999/xlink">
<g id="graph1" class="graph" transform="scale(1 1) rotate(0) translate(4 592)">
<title>Xorg</title>
<polygon fill="white" stroke="white" points="-4,5 -4,-592 810,-592 810,5 -4,5"/>
<g id="graph2" class="cluster"><title>cluster_client</title>
<polygon fill="none" stroke="green" points="459,-372 459,-580 754,-580 754,-372 459,-372"/>
<text text-anchor="middle" x="606.5" y="-560" font-family="Times,serif" font-size="20.00">Client</text>
</g>
<g id="graph3" class="cluster"><title>clusterLibraries</title>
<polygon fill="none" stroke="black" points="467,-380 467,-542 746,-542 746,-380 467,-380"/>
<text text-anchor="middle" x="606.5" y="-523.6" font-family="Times,serif" font-size="18.00">Client Libraries</text>
</g>
<g id="graph4" class="cluster"><title>cluster_hw</title>
<polygon fill="none" stroke="grey" points="77,-380 77,-462 399,-462 399,-380 77,-380"/>
<text text-anchor="middle" x="238" y="-442" font-family="Times,serif" font-size="20.00">Hardware devices</text>
</g>
<g id="graph5" class="cluster"><title>cluster_server</title>
<polygon fill="none" stroke="blue" points="8,-8 8,-364 690,-364 690,-8 8,-8"/>
<text text-anchor="middle" x="349" y="-344" font-family="Times,serif" font-size="20.00">Server</text>
</g>
<g id="graph6" class="cluster"><title>cluster_ddx</title>
<polygon fill="none" stroke="purple" points="16,-16 16,-326 268,-326 268,-16 16,-16"/>
<text text-anchor="middle" x="142" y="-306" font-family="Times,serif" font-size="20.00">DDX</text>
</g>
<g id="graph7" class="cluster"><title>clusterAcceleration</title>
<polygon fill="none" stroke="purple" points="24,-24 24,-178 260,-178 260,-24 24,-24"/>
<text text-anchor="middle" x="142" y="-158" font-family="Times,serif" font-size="20.00">Acceleration Architectures</text>
</g>
<g id="graph8" class="cluster"><title>cluster_dix</title>
<polygon fill="none" stroke="purple" points="345,-211 345,-293 607,-293 607,-211 345,-211"/>
<text text-anchor="middle" x="476" y="-273" font-family="Times,serif" font-size="20.00">DIX</text>
</g>
<g id="graph9" class="cluster"><title>cluster_extensions</title>
<polygon fill="none" stroke="purple" points="276,-96 276,-178 682,-178 682,-96 276,-96"/>
<text text-anchor="middle" x="479" y="-158" font-family="Times,serif" font-size="20.00">Extensions</text>
</g>
<!-- Cairo -->
<g id="node3" class="node"><title>Cairo</title>
<ellipse fill="none" stroke="black" cx="703" cy="-488" rx="34.6153" ry="18"/>
<text text-anchor="middle" x="703" y="-484.5" font-family="Times,serif" font-size="15.00">Cairo</text>
</g>
<!-- OpenGL -->
<g id="node5" class="node"><title>OpenGL</title>
<ellipse fill="none" stroke="black" cx="691" cy="-406" rx="46.3354" ry="18"/>
<text text-anchor="middle" x="691" y="-402.5" font-family="Times,serif" font-size="15.00">OpenGL</text>
</g>
<!-- Cairo&#45;&gt;OpenGL -->
<g id="edge6" class="edge"><title>Cairo&#45;&gt;OpenGL</title>
<path fill="none" stroke="black" d="M700.455,-470.034C698.891,-459.605 696.851,-446.006 695.067,-434.11"/>
<polygon fill="black" stroke="black" points="698.527,-433.587 693.583,-424.217 691.605,-434.626 698.527,-433.587"/>
</g>
<!-- Xlib or xcb -->
<g id="node7" class="node"><title>Xlib or xcb</title>
<ellipse fill="none" stroke="black" cx="551" cy="-406" rx="59.0975" ry="18"/>
<text text-anchor="middle" x="551" y="-402.5" font-family="Times,serif" font-size="15.00">Xlib or xcb</text>
</g>
<!-- Cairo&#45;&gt;Xlib or xcb -->
<g id="edge4" class="edge"><title>Cairo&#45;&gt;Xlib or xcb</title>
<path fill="none" stroke="black" d="M676.083,-476.37C670.456,-474.213 664.548,-471.995 659,-470 648.42,-466.195 645.121,-466.898 635,-462 615.804,-452.71 595.77,-439.738 580.084,-428.725"/>
<polygon fill="black" stroke="black" points="582.022,-425.807 571.85,-422.844 577.954,-431.504 582.022,-425.807"/>
</g>
<!-- Pango -->
<g id="node4" class="node"><title>Pango</title>
<ellipse fill="none" stroke="black" cx="512" cy="-488" rx="36.2459" ry="18"/>
<text text-anchor="middle" x="512" y="-484.5" font-family="Times,serif" font-size="15.00">Pango</text>
</g>
<!-- Pango&#45;&gt;Xlib or xcb -->
<g id="edge8" class="edge"><title>Pango&#45;&gt;Xlib or xcb</title>
<path fill="none" stroke="black" d="M520.081,-470.424C525.327,-459.662 532.276,-445.408 538.257,-433.139"/>
<polygon fill="black" stroke="black" points="541.559,-434.353 542.795,-423.83 535.267,-431.285 541.559,-434.353"/>
</g>
<!-- Mesa -->
<g id="node16" class="node"><title>Mesa</title>
<ellipse fill="none" stroke="black" cx="770" cy="-237" rx="34.0739" ry="18"/>
<text text-anchor="middle" x="770" y="-233.5" font-family="Times,serif" font-size="15.00">Mesa</text>
</g>
<!-- OpenGL&#45;&gt;Mesa -->
<g id="edge49" class="edge"><title>OpenGL&#45;&gt;Mesa</title>
<path fill="none" stroke="black" d="M705.108,-388.584C710.853,-381.365 717.245,-372.587 722,-364 740.019,-331.458 754.163,-290.767 762.299,-264.583"/>
<polygon fill="black" stroke="black" points="765.66,-265.561 765.217,-254.975 758.962,-263.526 765.66,-265.561"/>
</g>
<!-- Toolkit -->
<g id="node6" class="node"><title>Toolkit</title>
<ellipse fill="none" stroke="black" cx="609" cy="-488" rx="41.5387" ry="18"/>
<text text-anchor="middle" x="609" y="-484.5" font-family="Times,serif" font-size="15.00">Toolkit</text>
</g>
<!-- Toolkit&#45;&gt;Xlib or xcb -->
<g id="edge10" class="edge"><title>Toolkit&#45;&gt;Xlib or xcb</title>
<path fill="none" stroke="black" d="M596.982,-470.424C588.948,-459.343 578.23,-444.558 569.162,-432.051"/>
<polygon fill="black" stroke="black" points="571.905,-429.872 563.202,-423.83 566.238,-433.981 571.905,-429.872"/>
</g>
<!-- Dispatch -->
<g id="node29" class="node"><title>Dispatch</title>
<ellipse fill="none" stroke="black" cx="551" cy="-237" rx="47.4209" ry="18"/>
<text text-anchor="middle" x="551" y="-233.5" font-family="Times,serif" font-size="15.00">Dispatch</text>
</g>
<!-- Xlib or xcb&#45;&gt;Dispatch -->
<g id="edge35" class="edge"><title>Xlib or xcb&#45;&gt;Dispatch</title>
<path fill="none" stroke="black" d="M551,-387.757C551,-358.881 551,-300.5 551,-265.775"/>
<polygon fill="black" stroke="black" points="554.5,-265.399 551,-255.399 547.5,-265.399 554.5,-265.399"/>
</g>
<!-- Display -->
<g id="node13" class="node"><title>Display</title>
<ellipse fill="none" stroke="black" cx="251" cy="-406" rx="43.1695" ry="18"/>
<text text-anchor="middle" x="251" y="-402.5" font-family="Times,serif" font-size="15.00">Display</text>
</g>
<!-- Keyboard -->
<g id="node14" class="node"><title>Keyboard</title>
<ellipse fill="none" stroke="black" cx="137" cy="-406" rx="52.1744" ry="18"/>
<text text-anchor="middle" x="137" y="-402.5" font-family="Times,serif" font-size="15.00">Keyboard</text>
</g>
<!-- Input Drivers -->
<g id="node21" class="node"><title>Input Drivers</title>
<polygon fill="none" stroke="red" points="259.25,-284.5 164.75,-284.5 164.75,-189.5 259.25,-189.5 259.25,-284.5"/>
<polyline fill="none" stroke="red" points="176.75,-284.5 164.75,-272.5 "/>
<polyline fill="none" stroke="red" points="164.75,-201.5 176.75,-189.5 "/>
<polyline fill="none" stroke="red" points="247.25,-189.5 259.25,-201.5 "/>
<polyline fill="none" stroke="red" points="259.25,-272.5 247.25,-284.5 "/>
<text text-anchor="middle" x="212" y="-233.5" font-family="Times,serif" font-size="15.00">Input Drivers</text>
</g>
<!-- Keyboard&#45;&gt;Input Drivers -->
<g id="edge37" class="edge"><title>Keyboard&#45;&gt;Input Drivers</title>
<path fill="none" stroke="black" stroke-dasharray="5,2" d="M144.604,-388.068C154.434,-366.181 172.04,-326.978 186.792,-294.13"/>
<polygon fill="black" stroke="black" points="190.163,-295.167 191.067,-284.611 183.777,-292.299 190.163,-295.167"/>
</g>
<!-- Mouse -->
<g id="node15" class="node"><title>Mouse</title>
<ellipse fill="none" stroke="black" cx="352" cy="-406" rx="38.3713" ry="18"/>
<text text-anchor="middle" x="352" y="-402.5" font-family="Times,serif" font-size="15.00">Mouse</text>
</g>
<!-- Mouse&#45;&gt;Input Drivers -->
<g id="edge39" class="edge"><title>Mouse&#45;&gt;Input Drivers</title>
<path fill="none" stroke="blue" d="M338.576,-388.987C320.139,-366.994 286.06,-326.343 257.904,-292.757"/>
<polygon fill="blue" stroke="blue" points="260.365,-290.244 251.258,-284.829 255,-294.741 260.365,-290.244"/>
</g>
<!-- Gallium -->
<g id="node17" class="node"><title>Gallium</title>
<ellipse fill="none" stroke="black" cx="756" cy="-122" rx="45.2513" ry="18"/>
<text text-anchor="middle" x="756" y="-118.5" font-family="Times,serif" font-size="15.00">Gallium</text>
</g>
<!-- Mesa&#45;&gt;Gallium -->
<g id="edge53" class="edge"><title>Mesa&#45;&gt;Gallium</title>
<path fill="none" stroke="black" d="M767.874,-218.838C765.623,-200.669 762.037,-171.725 759.394,-150.394"/>
<polygon fill="black" stroke="black" points="762.849,-149.818 758.146,-140.324 755.902,-150.678 762.849,-149.818"/>
</g>
<!-- Gallium&#45;&gt;Display -->
<g id="edge55" class="edge"><title>Gallium&#45;&gt;Display</title>
<path fill="none" stroke="purple" stroke-dasharray="5,2" d="M748.423,-139.958C725.482,-190.465 655.615,-338.002 611,-364 581.517,-381.18 336.683,-362.194 304,-372 295.099,-374.67 286.216,-379.253 278.336,-384.169"/>
<polygon fill="purple" stroke="purple" points="276.302,-381.318 269.919,-389.775 280.182,-387.144 276.302,-381.318"/>
</g>
<!-- Event_Queue -->
<g id="node19" class="node"><title>Event_Queue</title>
<ellipse fill="none" stroke="black" cx="419" cy="-237" rx="66.0207" ry="18"/>
<text text-anchor="middle" x="419" y="-233.5" font-family="Times,serif" font-size="15.00">Event_Queue</text>
</g>
<!-- Event_Queue&#45;&gt;Xlib or xcb -->
<g id="edge47" class="edge"><title>Event_Queue&#45;&gt;Xlib or xcb</title>
<path fill="none" stroke="black" d="M426.328,-254.938C437.99,-280.573 462.688,-329.85 494,-364 500.665,-371.269 508.809,-378.038 516.833,-383.897"/>
<polygon fill="black" stroke="black" points="514.88,-386.802 525.083,-389.657 518.887,-381.063 514.88,-386.802"/>
</g>
<!-- Input Drivers&#45;&gt;Event_Queue -->
<g id="edge43" class="edge"><title>Input Drivers&#45;&gt;Event_Queue</title>
<path fill="none" stroke="black" d="M259.303,-237C287.082,-237 314.861,-237 342.641,-237"/>
<polygon fill="black" stroke="black" points="342.875,-240.5 352.875,-237 342.875,-233.5 342.875,-240.5"/>
</g>
<!-- Xinput -->
<g id="node33" class="node"><title>Xinput</title>
<polygon fill="none" stroke="black" points="437,-140 381.952,-122 437,-104 492.048,-122 437,-140"/>
<polyline fill="none" stroke="black" points="393.358,-125.73 393.358,-118.27 "/>
<polyline fill="none" stroke="black" points="425.594,-107.73 448.406,-107.73 "/>
<polyline fill="none" stroke="black" points="480.642,-118.27 480.642,-125.73 "/>
<polyline fill="none" stroke="black" points="448.406,-136.27 425.594,-136.27 "/>
<text text-anchor="middle" x="437" y="-118.5" font-family="Times,serif" font-size="15.00">Xinput</text>
</g>
<!-- Input Drivers&#45;&gt;Xinput -->
<g id="edge41" class="edge"><title>Input Drivers&#45;&gt;Xinput</title>
<path fill="none" stroke="black" d="M259.307,-216.131C283.501,-206.362 313.561,-194.825 341,-186 354.546,-181.644 359.362,-184.538 372,-178 389.017,-169.197 405.464,-155.209 417.557,-143.544"/>
<polygon fill="black" stroke="black" points="420.223,-145.828 424.837,-136.291 415.282,-140.87 420.223,-145.828"/>
</g>
<!-- Video Drivers -->
<g id="node22" class="node"><title>Video Drivers</title>
<polygon fill="none" stroke="red" points="146,-288 44,-288 44,-186 146,-186 146,-288"/>
<polyline fill="none" stroke="red" points="56,-288 44,-276 "/>
<polyline fill="none" stroke="red" points="44,-198 56,-186 "/>
<polyline fill="none" stroke="red" points="134,-186 146,-198 "/>
<polyline fill="none" stroke="red" points="146,-276 134,-288 "/>
<text text-anchor="middle" x="95" y="-233.5" font-family="Times,serif" font-size="15.00">Video Drivers</text>
</g>
<!-- Video Drivers&#45;&gt;Display -->
<g id="edge57" class="edge"><title>Video Drivers&#45;&gt;Display</title>
<path fill="none" stroke="purple" stroke-dasharray="5,2" d="M106.976,-288.087C115.88,-314.586 130.793,-345.4 155,-364 170.414,-375.844 179.879,-364.963 198,-372 206.279,-375.215 214.688,-379.753 222.295,-384.437"/>
<polygon fill="purple" stroke="purple" points="220.503,-387.446 230.802,-389.933 224.302,-381.566 220.503,-387.446"/>
</g>
<!-- Acceleration_2D -->
<g id="node24" class="node"><title>Acceleration_2D</title>
<ellipse fill="none" stroke="black" cx="115" cy="-122" rx="82.5361" ry="18"/>
<text text-anchor="middle" x="115" y="-118.5" font-family="Times,serif" font-size="15.00">Acceleration_2D</text>
</g>
<!-- Video Drivers&#45;&gt;Acceleration_2D -->
<g id="edge19" class="edge"><title>Video Drivers&#45;&gt;Acceleration_2D</title>
<path fill="none" stroke="black" d="M110.602,-185.778C112.923,-173.489 114.885,-160.797 116.068,-150.07"/>
<polygon fill="black" stroke="black" points="119.556,-150.361 116.977,-140.085 112.585,-149.726 119.556,-150.361"/>
</g>
<!-- Acceleration_2D&#45;&gt;Video Drivers -->
<g id="edge18" class="edge"><title>Acceleration_2D&#45;&gt;Video Drivers</title>
<path fill="none" stroke="black" d="M106.975,-140.085C104.189,-149.812 101.339,-162.647 98.9266,-175.752"/>
<polygon fill="black" stroke="black" points="95.4482,-175.325 97.1759,-185.778 102.344,-176.53 95.4482,-175.325"/>
</g>
<!-- Pixman -->
<g id="node25" class="node"><title>Pixman</title>
<ellipse fill="none" stroke="black" cx="115" cy="-50" rx="41.5387" ry="18"/>
<text text-anchor="middle" x="115" y="-46.5" font-family="Times,serif" font-size="15.00">Pixman</text>
</g>
<!-- Acceleration_2D&#45;&gt;Pixman -->
<g id="edge16" class="edge"><title>Acceleration_2D&#45;&gt;Pixman</title>
<path fill="none" stroke="black" d="M115,-103.697C115,-95.9827 115,-86.7125 115,-78.1124"/>
<polygon fill="black" stroke="black" points="118.5,-78.1043 115,-68.1043 111.5,-78.1044 118.5,-78.1043"/>
</g>
<!-- Dispatch&#45;&gt;Video Drivers -->
<g id="edge31" class="edge"><title>Dispatch&#45;&gt;Video Drivers</title>
<path fill="none" stroke="black" d="M549.711,-255.042C546.177,-288.521 533.08,-357.797 485,-368 467.555,-371.702 181.445,-371.702 164,-368 132.008,-361.211 114.772,-328.813 105.528,-297.937"/>
<polygon fill="black" stroke="black" points="108.822,-296.717 102.798,-288.001 102.072,-298.571 108.822,-296.717"/>
</g>
<!-- Render -->
<g id="node31" class="node"><title>Render</title>
<ellipse fill="none" stroke="black" cx="551" cy="-122" rx="40.4971" ry="18"/>
<text text-anchor="middle" x="551" y="-118.5" font-family="Times,serif" font-size="15.00">Render</text>
</g>
<!-- Dispatch&#45;&gt;Render -->
<g id="edge27" class="edge"><title>Dispatch&#45;&gt;Render</title>
<path fill="none" stroke="green" d="M551,-218.838C551,-200.669 551,-171.725 551,-150.394"/>
<polygon fill="green" stroke="green" points="554.5,-150.324 551,-140.324 547.5,-150.324 554.5,-150.324"/>
</g>
<!-- RandR -->
<g id="node32" class="node"><title>RandR</title>
<ellipse fill="none" stroke="black" cx="324" cy="-122" rx="39.4119" ry="18"/>
<text text-anchor="middle" x="324" y="-118.5" font-family="Times,serif" font-size="15.00">RandR</text>
</g>
<!-- Dispatch&#45;&gt;RandR -->
<g id="edge23" class="edge"><title>Dispatch&#45;&gt;RandR</title>
<path fill="none" stroke="green" d="M537.429,-219.344C526.916,-207.76 511.267,-193.159 494,-186 469.107,-175.679 397.212,-189.831 373,-178 359.449,-171.378 347.984,-159.185 339.559,-147.958"/>
<polygon fill="green" stroke="green" points="342.343,-145.833 333.725,-139.67 336.619,-149.862 342.343,-145.833"/>
</g>
<!-- Dispatch&#45;&gt;Xinput -->
<g id="edge25" class="edge"><title>Dispatch&#45;&gt;Xinput</title>
<path fill="none" stroke="green" d="M534.667,-219.81C514.29,-199.612 479.444,-165.072 457.352,-143.173"/>
<polygon fill="green" stroke="green" points="459.68,-140.553 450.114,-135.999 454.752,-145.524 459.68,-140.553"/>
</g>
<!-- GLX -->
<g id="node34" class="node"><title>GLX</title>
<ellipse fill="none" stroke="black" cx="642" cy="-122" rx="31.4475" ry="18"/>
<text text-anchor="middle" x="642" y="-118.5" font-family="Times,serif" font-size="15.00">GLX</text>
</g>
<!-- Dispatch&#45;&gt;GLX -->
<g id="edge29" class="edge"><title>Dispatch&#45;&gt;GLX</title>
<path fill="none" stroke="green" d="M565.373,-219.43C575.258,-207.927 588.607,-192.181 600,-178 608.032,-168.003 616.667,-156.782 624.006,-147.094"/>
<polygon fill="green" stroke="green" points="626.849,-149.138 630.075,-139.046 621.26,-144.923 626.849,-149.138"/>
</g>
<!-- RandR&#45;&gt;Video Drivers -->
<g id="edge33" class="edge"><title>RandR&#45;&gt;Video Drivers</title>
<path fill="none" stroke="black" d="M311.667,-139.158C300.715,-152.159 283.46,-169.598 264,-178 222.105,-196.09 202.475,-171.19 155.516,-186.713"/>
<polygon fill="black" stroke="black" points="154.223,-183.459 146.083,-190.24 156.675,-190.016 154.223,-183.459"/>
</g>
<!-- Xinput&#45;&gt;Event_Queue -->
<g id="edge45" class="edge"><title>Xinput&#45;&gt;Event_Queue</title>
<path fill="none" stroke="black" d="M434.416,-139.222C431.52,-157.403 426.777,-187.175 423.316,-208.903"/>
<polygon fill="black" stroke="black" points="419.851,-208.412 421.734,-218.838 426.763,-209.513 419.851,-208.412"/>
</g>
<!-- GLX&#45;&gt;Mesa -->
<g id="edge51" class="edge"><title>GLX&#45;&gt;Mesa</title>
<path fill="none" stroke="black" d="M650.113,-139.774C656.332,-151.443 665.745,-166.847 677,-178 694.307,-195.15 717.568,-209.655 736.496,-219.869"/>
<polygon fill="black" stroke="black" points="734.913,-222.991 745.395,-224.532 738.162,-216.791 734.913,-222.991"/>
</g>
</g>
</svg>
